<svg width="16" height="11" viewBox="0 0 16 11" fill="none" xmlns="http://www.w3.org/2000/svg">
<path d="M0.00684954 5.3509L-2.29524e-07 5.2491C-2.46121e-07 4.8694 0.28215 4.5556 0.64823 4.506L0.75 4.4991L13.446 4.5L10.2248 1.2806C9.9585 1.0144 9.9341 0.597703 10.1518 0.304003L10.2244 0.219903C10.4905 -0.0464978 10.9072 -0.0708976 11.2009 0.146903L11.2851 0.219403L15.7851 4.7157C16.0514 4.9818 16.0758 5.3985 15.8581 5.6922L15.7855 5.7763L11.2855 10.2801C10.9927 10.5731 10.5179 10.5733 10.2248 10.2806C9.9585 10.0144 9.9341 9.59774 10.1518 9.30404L10.2244 9.21989L13.442 6L0.75 5.9991C0.3703 5.9991 0.0565096 5.717 0.00684954 5.3509Z" fill="black"/>
</svg>
