<svg width="19" height="19" viewBox="0 0 19 19" fill="none" xmlns="http://www.w3.org/2000/svg">
<path d="M6.5 5.5L12.5 13.5" stroke="#A0A096" stroke-linecap="round" stroke-linejoin="round"/>
<path d="M9.5 18.5C11.8869 18.5 14.1761 17.5518 15.864 15.864C17.5518 14.1761 18.5 11.8869 18.5 9.5C18.5 7.11305 17.5518 4.82387 15.864 3.13604C14.1761 1.44821 11.8869 0.5 9.5 0.5C7.11305 0.5 4.82387 1.44821 3.13604 3.13604C1.44821 4.82387 0.5 7.11305 0.5 9.5C0.5 11.8869 1.44821 14.1761 3.13604 15.864C4.82387 17.5518 7.11305 18.5 9.5 18.5Z" stroke="#A0A096" stroke-linecap="round" stroke-linejoin="round"/>
<path d="M12.5 5.5L6.5 13.5" stroke="#A0A096" stroke-linecap="round" stroke-linejoin="round"/>
</svg>
