<svg width="48" height="48" viewBox="0 0 48 48" fill="none" xmlns="http://www.w3.org/2000/svg">
<path d="M4 16C4 13.8783 4.84285 11.8434 6.34315 10.3431C7.84344 8.84285 9.87827 8 12 8H36C38.1217 8 40.1566 8.84285 41.6569 10.3431C43.1571 11.8434 44 13.8783 44 16V32C44 34.1217 43.1571 36.1566 41.6569 37.6569C40.1566 39.1571 38.1217 40 36 40H12C9.87827 40 7.84344 39.1571 6.34315 37.6569C4.84285 36.1566 4 34.1217 4 32V16Z" stroke="black" stroke-width="2" stroke-linecap="round" stroke-linejoin="round"/>
<path d="M20 18L30 24L20 30V18Z" stroke="black" stroke-width="2" stroke-linecap="round" stroke-linejoin="round"/>
</svg>
