<svg width="150" height="28" viewBox="0 0 150 28" fill="none" xmlns="http://www.w3.org/2000/svg">
<mask id="path-1-inside-1_49_10" fill="white">
<path d="M58.31 10.485C58.94 10.485 59.495 10.615 59.975 10.875C60.455 11.135 60.825 11.505 61.085 11.985C61.355 12.455 61.49 13 61.49 13.62C61.49 14.23 61.355 14.77 61.085 15.24C60.815 15.71 60.43 16.075 59.93 16.335C59.44 16.585 58.87 16.71 58.22 16.71H55.82C55.77 16.71 55.745 16.735 55.745 16.785V20.82C55.745 20.87 55.725 20.915 55.685 20.955C55.655 20.985 55.615 21 55.565 21H54.185C54.135 21 54.09 20.985 54.05 20.955C54.02 20.915 54.005 20.87 54.005 20.82V10.665C54.005 10.615 54.02 10.575 54.05 10.545C54.09 10.505 54.135 10.485 54.185 10.485H58.31ZM58.055 15.3C58.565 15.3 58.975 15.15 59.285 14.85C59.595 14.55 59.75 14.155 59.75 13.665C59.75 13.165 59.595 12.76 59.285 12.45C58.975 12.14 58.565 11.985 58.055 11.985H55.82C55.77 11.985 55.745 12.01 55.745 12.06V15.225C55.745 15.275 55.77 15.3 55.82 15.3H58.055Z"/>
<path d="M68.9109 21C68.8109 21 68.7409 20.955 68.7009 20.865L66.7209 16.545C66.7009 16.505 66.6709 16.485 66.6309 16.485H64.8309C64.7809 16.485 64.7559 16.51 64.7559 16.56V20.82C64.7559 20.87 64.7359 20.915 64.6959 20.955C64.6659 20.985 64.6259 21 64.5759 21H63.1959C63.1459 21 63.1009 20.985 63.0609 20.955C63.0309 20.915 63.0159 20.87 63.0159 20.82V10.68C63.0159 10.63 63.0309 10.59 63.0609 10.56C63.1009 10.52 63.1459 10.5 63.1959 10.5H67.3209C67.9309 10.5 68.4709 10.63 68.9409 10.89C69.4109 11.14 69.7759 11.5 70.0359 11.97C70.2959 12.43 70.4259 12.96 70.4259 13.56C70.4259 14.25 70.2459 14.84 69.8859 15.33C69.5359 15.81 69.0459 16.145 68.4159 16.335C68.3959 16.335 68.3809 16.345 68.3709 16.365C68.3609 16.385 68.3609 16.405 68.3709 16.425L70.4859 20.79C70.5059 20.83 70.5159 20.86 70.5159 20.88C70.5159 20.96 70.4609 21 70.3509 21H68.9109ZM64.8309 12C64.7809 12 64.7559 12.025 64.7559 12.075V15.06C64.7559 15.11 64.7809 15.135 64.8309 15.135H67.0809C67.5609 15.135 67.9459 14.995 68.2359 14.715C68.5359 14.425 68.6859 14.045 68.6859 13.575C68.6859 13.105 68.5359 12.725 68.2359 12.435C67.9459 12.145 67.5609 12 67.0809 12H64.8309Z"/>
<path d="M75.7701 21.15C75.0201 21.15 74.3551 21 73.7751 20.7C73.1951 20.39 72.7451 19.955 72.4251 19.395C72.1151 18.835 71.9601 18.19 71.9601 17.46V14.04C71.9601 13.32 72.1201 12.685 72.4401 12.135C72.7601 11.575 73.2051 11.145 73.7751 10.845C74.3551 10.535 75.0201 10.38 75.7701 10.38C76.5301 10.38 77.1951 10.535 77.7651 10.845C78.3451 11.145 78.7951 11.575 79.1151 12.135C79.4351 12.685 79.5951 13.32 79.5951 14.04V17.46C79.5951 18.19 79.4351 18.835 79.1151 19.395C78.7951 19.955 78.3451 20.39 77.7651 20.7C77.1951 21 76.5301 21.15 75.7701 21.15ZM75.7701 19.65C76.4001 19.65 76.9051 19.455 77.2851 19.065C77.6651 18.675 77.8551 18.16 77.8551 17.52V14.025C77.8551 13.375 77.6651 12.855 77.2851 12.465C76.9051 12.075 76.4001 11.88 75.7701 11.88C75.1501 11.88 74.6501 12.075 74.2701 12.465C73.8901 12.855 73.7001 13.375 73.7001 14.025V17.52C73.7001 18.16 73.8901 18.675 74.2701 19.065C74.6501 19.455 75.1501 19.65 75.7701 19.65Z"/>
<path d="M88.6265 11.82C88.6265 11.87 88.6065 11.915 88.5665 11.955C88.5365 11.985 88.4965 12 88.4465 12H83.3465C83.2965 12 83.2715 12.025 83.2715 12.075V14.88C83.2715 14.93 83.2965 14.955 83.3465 14.955H86.7815C86.8315 14.955 86.8715 14.975 86.9015 15.015C86.9415 15.045 86.9615 15.085 86.9615 15.135V16.275C86.9615 16.325 86.9415 16.37 86.9015 16.41C86.8715 16.44 86.8315 16.455 86.7815 16.455H83.3465C83.2965 16.455 83.2715 16.48 83.2715 16.53V20.82C83.2715 20.87 83.2515 20.915 83.2115 20.955C83.1815 20.985 83.1415 21 83.0915 21H81.7115C81.6615 21 81.6165 20.985 81.5765 20.955C81.5465 20.915 81.5315 20.87 81.5315 20.82V10.68C81.5315 10.63 81.5465 10.59 81.5765 10.56C81.6165 10.52 81.6615 10.5 81.7115 10.5H88.4465C88.4965 10.5 88.5365 10.52 88.5665 10.56C88.6065 10.59 88.6265 10.63 88.6265 10.68V11.82Z"/>
<path d="M97.0937 11.82C97.0937 11.87 97.0737 11.915 97.0337 11.955C97.0037 11.985 96.9637 12 96.9137 12H91.7987C91.7487 12 91.7237 12.025 91.7237 12.075V14.88C91.7237 14.93 91.7487 14.955 91.7987 14.955H95.2337C95.2837 14.955 95.3237 14.975 95.3537 15.015C95.3937 15.045 95.4137 15.085 95.4137 15.135V16.275C95.4137 16.325 95.3937 16.37 95.3537 16.41C95.3237 16.44 95.2837 16.455 95.2337 16.455H91.7987C91.7487 16.455 91.7237 16.48 91.7237 16.53V19.425C91.7237 19.475 91.7487 19.5 91.7987 19.5H96.9137C96.9637 19.5 97.0037 19.52 97.0337 19.56C97.0737 19.59 97.0937 19.63 97.0937 19.68V20.82C97.0937 20.87 97.0737 20.915 97.0337 20.955C97.0037 20.985 96.9637 21 96.9137 21H90.1637C90.1137 21 90.0687 20.985 90.0287 20.955C89.9987 20.915 89.9837 20.87 89.9837 20.82V10.68C89.9837 10.63 89.9987 10.59 90.0287 10.56C90.0687 10.52 90.1137 10.5 90.1637 10.5H96.9137C96.9637 10.5 97.0037 10.52 97.0337 10.56C97.0737 10.59 97.0937 10.63 97.0937 10.68V11.82Z"/>
<path d="M99.0406 21C98.9906 21 98.9456 20.985 98.9056 20.955C98.8756 20.915 98.8606 20.87 98.8606 20.82V10.68C98.8606 10.63 98.8756 10.59 98.9056 10.56C98.9456 10.52 98.9906 10.5 99.0406 10.5H100.421C100.471 10.5 100.511 10.52 100.541 10.56C100.581 10.59 100.601 10.63 100.601 10.68V19.425C100.601 19.475 100.626 19.5 100.676 19.5H105.701C105.751 19.5 105.791 19.52 105.821 19.56C105.861 19.59 105.881 19.63 105.881 19.68V20.82C105.881 20.87 105.861 20.915 105.821 20.955C105.791 20.985 105.751 21 105.701 21H99.0406Z"/>
<path d="M107.61 21C107.56 21 107.515 20.985 107.475 20.955C107.445 20.915 107.43 20.87 107.43 20.82V10.68C107.43 10.63 107.445 10.59 107.475 10.56C107.515 10.52 107.56 10.5 107.61 10.5H108.99C109.04 10.5 109.08 10.52 109.11 10.56C109.15 10.59 109.17 10.63 109.17 10.68V19.425C109.17 19.475 109.195 19.5 109.245 19.5H114.27C114.32 19.5 114.36 19.52 114.39 19.56C114.43 19.59 114.45 19.63 114.45 19.68V20.82C114.45 20.87 114.43 20.915 114.39 20.955C114.36 20.985 114.32 21 114.27 21H107.61Z"/>
<path d="M122.905 21C122.805 21 122.74 20.95 122.71 20.85L122.215 19.245C122.195 19.205 122.17 19.185 122.14 19.185H118.18C118.15 19.185 118.125 19.205 118.105 19.245L117.61 20.85C117.58 20.95 117.515 21 117.415 21H115.915C115.855 21 115.81 20.985 115.78 20.955C115.75 20.915 115.745 20.86 115.765 20.79L119.02 10.65C119.05 10.55 119.115 10.5 119.215 10.5H121.09C121.19 10.5 121.255 10.55 121.285 10.65L124.555 20.79C124.565 20.81 124.57 20.835 124.57 20.865C124.57 20.955 124.515 21 124.405 21H122.905ZM118.57 17.73C118.56 17.79 118.58 17.82 118.63 17.82H121.675C121.735 17.82 121.755 17.79 121.735 17.73L120.19 12.705C120.18 12.665 120.165 12.645 120.145 12.645C120.125 12.645 120.11 12.665 120.1 12.705L118.57 17.73Z"/>
<path d="M134.989 15.525C134.929 15.555 134.929 15.585 134.989 15.615C136.009 16.095 136.519 16.92 136.519 18.09C136.519 19.04 136.199 19.765 135.559 20.265C134.929 20.755 134.104 21 133.084 21H129.304C129.254 21 129.209 20.985 129.169 20.955C129.139 20.915 129.124 20.87 129.124 20.82V10.68C129.124 10.63 129.139 10.59 129.169 10.56C129.209 10.52 129.254 10.5 129.304 10.5H132.964C134.054 10.5 134.894 10.735 135.484 11.205C136.074 11.675 136.369 12.385 136.369 13.335C136.369 14.385 135.909 15.115 134.989 15.525ZM130.939 12C130.889 12 130.864 12.025 130.864 12.075V14.85C130.864 14.9 130.889 14.925 130.939 14.925H132.964C133.494 14.925 133.909 14.8 134.209 14.55C134.519 14.29 134.674 13.935 134.674 13.485C134.674 13.025 134.519 12.665 134.209 12.405C133.909 12.135 133.494 12 132.964 12H130.939ZM133.084 19.485C133.604 19.485 134.014 19.345 134.314 19.065C134.624 18.785 134.779 18.405 134.779 17.925C134.779 17.435 134.624 17.055 134.314 16.785C134.004 16.505 133.584 16.365 133.054 16.365H130.939C130.889 16.365 130.864 16.39 130.864 16.44V19.41C130.864 19.46 130.889 19.485 130.939 19.485H133.084Z"/>
<path d="M138.635 21C138.585 21 138.54 20.985 138.5 20.955C138.47 20.915 138.455 20.87 138.455 20.82V10.68C138.455 10.63 138.47 10.59 138.5 10.56C138.54 10.52 138.585 10.5 138.635 10.5H140.015C140.065 10.5 140.105 10.52 140.135 10.56C140.175 10.59 140.195 10.63 140.195 10.68V20.82C140.195 20.87 140.175 20.915 140.135 20.955C140.105 20.985 140.065 21 140.015 21H138.635Z"/>
<path d="M145.936 21.15C145.186 21.15 144.521 21 143.941 20.7C143.361 20.39 142.911 19.955 142.591 19.395C142.281 18.835 142.126 18.19 142.126 17.46V14.04C142.126 13.32 142.286 12.685 142.606 12.135C142.926 11.575 143.371 11.145 143.941 10.845C144.521 10.535 145.186 10.38 145.936 10.38C146.696 10.38 147.361 10.535 147.931 10.845C148.511 11.145 148.961 11.575 149.281 12.135C149.601 12.685 149.761 13.32 149.761 14.04V17.46C149.761 18.19 149.601 18.835 149.281 19.395C148.961 19.955 148.511 20.39 147.931 20.7C147.361 21 146.696 21.15 145.936 21.15ZM145.936 19.65C146.566 19.65 147.071 19.455 147.451 19.065C147.831 18.675 148.021 18.16 148.021 17.52V14.025C148.021 13.375 147.831 12.855 147.451 12.465C147.071 12.075 146.566 11.88 145.936 11.88C145.316 11.88 144.816 12.075 144.436 12.465C144.056 12.855 143.866 13.375 143.866 14.025V17.52C143.866 18.16 144.056 18.675 144.436 19.065C144.816 19.455 145.316 19.65 145.936 19.65Z"/>
<path d="M28 14C28 21.732 21.732 28 14 28C6.26801 28 0 21.732 0 14C0 6.26801 6.26801 0 14 0C21.732 0 28 6.26801 28 14Z"/>
<path d="M37 14C37 18.9706 32.9706 23 28 23C23.0294 23 19 18.9706 19 14C19 9.02944 23.0294 5 28 5C32.9706 5 37 9.02944 37 14Z"/>
</mask>
<path d="M58.31 10.485C58.94 10.485 59.495 10.615 59.975 10.875C60.455 11.135 60.825 11.505 61.085 11.985C61.355 12.455 61.49 13 61.49 13.62C61.49 14.23 61.355 14.77 61.085 15.24C60.815 15.71 60.43 16.075 59.93 16.335C59.44 16.585 58.87 16.71 58.22 16.71H55.82C55.77 16.71 55.745 16.735 55.745 16.785V20.82C55.745 20.87 55.725 20.915 55.685 20.955C55.655 20.985 55.615 21 55.565 21H54.185C54.135 21 54.09 20.985 54.05 20.955C54.02 20.915 54.005 20.87 54.005 20.82V10.665C54.005 10.615 54.02 10.575 54.05 10.545C54.09 10.505 54.135 10.485 54.185 10.485H58.31ZM58.055 15.3C58.565 15.3 58.975 15.15 59.285 14.85C59.595 14.55 59.75 14.155 59.75 13.665C59.75 13.165 59.595 12.76 59.285 12.45C58.975 12.14 58.565 11.985 58.055 11.985H55.82C55.77 11.985 55.745 12.01 55.745 12.06V15.225C55.745 15.275 55.77 15.3 55.82 15.3H58.055Z" fill="white"/>
<path d="M68.9109 21C68.8109 21 68.7409 20.955 68.7009 20.865L66.7209 16.545C66.7009 16.505 66.6709 16.485 66.6309 16.485H64.8309C64.7809 16.485 64.7559 16.51 64.7559 16.56V20.82C64.7559 20.87 64.7359 20.915 64.6959 20.955C64.6659 20.985 64.6259 21 64.5759 21H63.1959C63.1459 21 63.1009 20.985 63.0609 20.955C63.0309 20.915 63.0159 20.87 63.0159 20.82V10.68C63.0159 10.63 63.0309 10.59 63.0609 10.56C63.1009 10.52 63.1459 10.5 63.1959 10.5H67.3209C67.9309 10.5 68.4709 10.63 68.9409 10.89C69.4109 11.14 69.7759 11.5 70.0359 11.97C70.2959 12.43 70.4259 12.96 70.4259 13.56C70.4259 14.25 70.2459 14.84 69.8859 15.33C69.5359 15.81 69.0459 16.145 68.4159 16.335C68.3959 16.335 68.3809 16.345 68.3709 16.365C68.3609 16.385 68.3609 16.405 68.3709 16.425L70.4859 20.79C70.5059 20.83 70.5159 20.86 70.5159 20.88C70.5159 20.96 70.4609 21 70.3509 21H68.9109ZM64.8309 12C64.7809 12 64.7559 12.025 64.7559 12.075V15.06C64.7559 15.11 64.7809 15.135 64.8309 15.135H67.0809C67.5609 15.135 67.9459 14.995 68.2359 14.715C68.5359 14.425 68.6859 14.045 68.6859 13.575C68.6859 13.105 68.5359 12.725 68.2359 12.435C67.9459 12.145 67.5609 12 67.0809 12H64.8309Z" fill="white"/>
<path d="M75.7701 21.15C75.0201 21.15 74.3551 21 73.7751 20.7C73.1951 20.39 72.7451 19.955 72.4251 19.395C72.1151 18.835 71.9601 18.19 71.9601 17.46V14.04C71.9601 13.32 72.1201 12.685 72.4401 12.135C72.7601 11.575 73.2051 11.145 73.7751 10.845C74.3551 10.535 75.0201 10.38 75.7701 10.38C76.5301 10.38 77.1951 10.535 77.7651 10.845C78.3451 11.145 78.7951 11.575 79.1151 12.135C79.4351 12.685 79.5951 13.32 79.5951 14.04V17.46C79.5951 18.19 79.4351 18.835 79.1151 19.395C78.7951 19.955 78.3451 20.39 77.7651 20.7C77.1951 21 76.5301 21.15 75.7701 21.15ZM75.7701 19.65C76.4001 19.65 76.9051 19.455 77.2851 19.065C77.6651 18.675 77.8551 18.16 77.8551 17.52V14.025C77.8551 13.375 77.6651 12.855 77.2851 12.465C76.9051 12.075 76.4001 11.88 75.7701 11.88C75.1501 11.88 74.6501 12.075 74.2701 12.465C73.8901 12.855 73.7001 13.375 73.7001 14.025V17.52C73.7001 18.16 73.8901 18.675 74.2701 19.065C74.6501 19.455 75.1501 19.65 75.7701 19.65Z" fill="white"/>
<path d="M88.6265 11.82C88.6265 11.87 88.6065 11.915 88.5665 11.955C88.5365 11.985 88.4965 12 88.4465 12H83.3465C83.2965 12 83.2715 12.025 83.2715 12.075V14.88C83.2715 14.93 83.2965 14.955 83.3465 14.955H86.7815C86.8315 14.955 86.8715 14.975 86.9015 15.015C86.9415 15.045 86.9615 15.085 86.9615 15.135V16.275C86.9615 16.325 86.9415 16.37 86.9015 16.41C86.8715 16.44 86.8315 16.455 86.7815 16.455H83.3465C83.2965 16.455 83.2715 16.48 83.2715 16.53V20.82C83.2715 20.87 83.2515 20.915 83.2115 20.955C83.1815 20.985 83.1415 21 83.0915 21H81.7115C81.6615 21 81.6165 20.985 81.5765 20.955C81.5465 20.915 81.5315 20.87 81.5315 20.82V10.68C81.5315 10.63 81.5465 10.59 81.5765 10.56C81.6165 10.52 81.6615 10.5 81.7115 10.5H88.4465C88.4965 10.5 88.5365 10.52 88.5665 10.56C88.6065 10.59 88.6265 10.63 88.6265 10.68V11.82Z" fill="white"/>
<path d="M97.0937 11.82C97.0937 11.87 97.0737 11.915 97.0337 11.955C97.0037 11.985 96.9637 12 96.9137 12H91.7987C91.7487 12 91.7237 12.025 91.7237 12.075V14.88C91.7237 14.93 91.7487 14.955 91.7987 14.955H95.2337C95.2837 14.955 95.3237 14.975 95.3537 15.015C95.3937 15.045 95.4137 15.085 95.4137 15.135V16.275C95.4137 16.325 95.3937 16.37 95.3537 16.41C95.3237 16.44 95.2837 16.455 95.2337 16.455H91.7987C91.7487 16.455 91.7237 16.48 91.7237 16.53V19.425C91.7237 19.475 91.7487 19.5 91.7987 19.5H96.9137C96.9637 19.5 97.0037 19.52 97.0337 19.56C97.0737 19.59 97.0937 19.63 97.0937 19.68V20.82C97.0937 20.87 97.0737 20.915 97.0337 20.955C97.0037 20.985 96.9637 21 96.9137 21H90.1637C90.1137 21 90.0687 20.985 90.0287 20.955C89.9987 20.915 89.9837 20.87 89.9837 20.82V10.68C89.9837 10.63 89.9987 10.59 90.0287 10.56C90.0687 10.52 90.1137 10.5 90.1637 10.5H96.9137C96.9637 10.5 97.0037 10.52 97.0337 10.56C97.0737 10.59 97.0937 10.63 97.0937 10.68V11.82Z" fill="white"/>
<path d="M99.0406 21C98.9906 21 98.9456 20.985 98.9056 20.955C98.8756 20.915 98.8606 20.87 98.8606 20.82V10.68C98.8606 10.63 98.8756 10.59 98.9056 10.56C98.9456 10.52 98.9906 10.5 99.0406 10.5H100.421C100.471 10.5 100.511 10.52 100.541 10.56C100.581 10.59 100.601 10.63 100.601 10.68V19.425C100.601 19.475 100.626 19.5 100.676 19.5H105.701C105.751 19.5 105.791 19.52 105.821 19.56C105.861 19.59 105.881 19.63 105.881 19.68V20.82C105.881 20.87 105.861 20.915 105.821 20.955C105.791 20.985 105.751 21 105.701 21H99.0406Z" fill="white"/>
<path d="M107.61 21C107.56 21 107.515 20.985 107.475 20.955C107.445 20.915 107.43 20.87 107.43 20.82V10.68C107.43 10.63 107.445 10.59 107.475 10.56C107.515 10.52 107.56 10.5 107.61 10.5H108.99C109.04 10.5 109.08 10.52 109.11 10.56C109.15 10.59 109.17 10.63 109.17 10.68V19.425C109.17 19.475 109.195 19.5 109.245 19.5H114.27C114.32 19.5 114.36 19.52 114.39 19.56C114.43 19.59 114.45 19.63 114.45 19.68V20.82C114.45 20.87 114.43 20.915 114.39 20.955C114.36 20.985 114.32 21 114.27 21H107.61Z" fill="white"/>
<path d="M122.905 21C122.805 21 122.74 20.95 122.71 20.85L122.215 19.245C122.195 19.205 122.17 19.185 122.14 19.185H118.18C118.15 19.185 118.125 19.205 118.105 19.245L117.61 20.85C117.58 20.95 117.515 21 117.415 21H115.915C115.855 21 115.81 20.985 115.78 20.955C115.75 20.915 115.745 20.86 115.765 20.79L119.02 10.65C119.05 10.55 119.115 10.5 119.215 10.5H121.09C121.19 10.5 121.255 10.55 121.285 10.65L124.555 20.79C124.565 20.81 124.57 20.835 124.57 20.865C124.57 20.955 124.515 21 124.405 21H122.905ZM118.57 17.73C118.56 17.79 118.58 17.82 118.63 17.82H121.675C121.735 17.82 121.755 17.79 121.735 17.73L120.19 12.705C120.18 12.665 120.165 12.645 120.145 12.645C120.125 12.645 120.11 12.665 120.1 12.705L118.57 17.73Z" fill="white"/>
<path d="M134.989 15.525C134.929 15.555 134.929 15.585 134.989 15.615C136.009 16.095 136.519 16.92 136.519 18.09C136.519 19.04 136.199 19.765 135.559 20.265C134.929 20.755 134.104 21 133.084 21H129.304C129.254 21 129.209 20.985 129.169 20.955C129.139 20.915 129.124 20.87 129.124 20.82V10.68C129.124 10.63 129.139 10.59 129.169 10.56C129.209 10.52 129.254 10.5 129.304 10.5H132.964C134.054 10.5 134.894 10.735 135.484 11.205C136.074 11.675 136.369 12.385 136.369 13.335C136.369 14.385 135.909 15.115 134.989 15.525ZM130.939 12C130.889 12 130.864 12.025 130.864 12.075V14.85C130.864 14.9 130.889 14.925 130.939 14.925H132.964C133.494 14.925 133.909 14.8 134.209 14.55C134.519 14.29 134.674 13.935 134.674 13.485C134.674 13.025 134.519 12.665 134.209 12.405C133.909 12.135 133.494 12 132.964 12H130.939ZM133.084 19.485C133.604 19.485 134.014 19.345 134.314 19.065C134.624 18.785 134.779 18.405 134.779 17.925C134.779 17.435 134.624 17.055 134.314 16.785C134.004 16.505 133.584 16.365 133.054 16.365H130.939C130.889 16.365 130.864 16.39 130.864 16.44V19.41C130.864 19.46 130.889 19.485 130.939 19.485H133.084Z" fill="white"/>
<path d="M138.635 21C138.585 21 138.54 20.985 138.5 20.955C138.47 20.915 138.455 20.87 138.455 20.82V10.68C138.455 10.63 138.47 10.59 138.5 10.56C138.54 10.52 138.585 10.5 138.635 10.5H140.015C140.065 10.5 140.105 10.52 140.135 10.56C140.175 10.59 140.195 10.63 140.195 10.68V20.82C140.195 20.87 140.175 20.915 140.135 20.955C140.105 20.985 140.065 21 140.015 21H138.635Z" fill="white"/>
<path d="M145.936 21.15C145.186 21.15 144.521 21 143.941 20.7C143.361 20.39 142.911 19.955 142.591 19.395C142.281 18.835 142.126 18.19 142.126 17.46V14.04C142.126 13.32 142.286 12.685 142.606 12.135C142.926 11.575 143.371 11.145 143.941 10.845C144.521 10.535 145.186 10.38 145.936 10.38C146.696 10.38 147.361 10.535 147.931 10.845C148.511 11.145 148.961 11.575 149.281 12.135C149.601 12.685 149.761 13.32 149.761 14.04V17.46C149.761 18.19 149.601 18.835 149.281 19.395C148.961 19.955 148.511 20.39 147.931 20.7C147.361 21 146.696 21.15 145.936 21.15ZM145.936 19.65C146.566 19.65 147.071 19.455 147.451 19.065C147.831 18.675 148.021 18.16 148.021 17.52V14.025C148.021 13.375 147.831 12.855 147.451 12.465C147.071 12.075 146.566 11.88 145.936 11.88C145.316 11.88 144.816 12.075 144.436 12.465C144.056 12.855 143.866 13.375 143.866 14.025V17.52C143.866 18.16 144.056 18.675 144.436 19.065C144.816 19.455 145.316 19.65 145.936 19.65Z" fill="white"/>
<path d="M58.31 10.485C58.94 10.485 59.495 10.615 59.975 10.875C60.455 11.135 60.825 11.505 61.085 11.985C61.355 12.455 61.49 13 61.49 13.62C61.49 14.23 61.355 14.77 61.085 15.24C60.815 15.71 60.43 16.075 59.93 16.335C59.44 16.585 58.87 16.71 58.22 16.71H55.82C55.77 16.71 55.745 16.735 55.745 16.785V20.82C55.745 20.87 55.725 20.915 55.685 20.955C55.655 20.985 55.615 21 55.565 21H54.185C54.135 21 54.09 20.985 54.05 20.955C54.02 20.915 54.005 20.87 54.005 20.82V10.665C54.005 10.615 54.02 10.575 54.05 10.545C54.09 10.505 54.135 10.485 54.185 10.485H58.31ZM58.055 15.3C58.565 15.3 58.975 15.15 59.285 14.85C59.595 14.55 59.75 14.155 59.75 13.665C59.75 13.165 59.595 12.76 59.285 12.45C58.975 12.14 58.565 11.985 58.055 11.985H55.82C55.77 11.985 55.745 12.01 55.745 12.06V15.225C55.745 15.275 55.77 15.3 55.82 15.3H58.055Z" stroke="white" stroke-width="3" mask="url(#path-1-inside-1_49_10)"/>
<path d="M68.9109 21C68.8109 21 68.7409 20.955 68.7009 20.865L66.7209 16.545C66.7009 16.505 66.6709 16.485 66.6309 16.485H64.8309C64.7809 16.485 64.7559 16.51 64.7559 16.56V20.82C64.7559 20.87 64.7359 20.915 64.6959 20.955C64.6659 20.985 64.6259 21 64.5759 21H63.1959C63.1459 21 63.1009 20.985 63.0609 20.955C63.0309 20.915 63.0159 20.87 63.0159 20.82V10.68C63.0159 10.63 63.0309 10.59 63.0609 10.56C63.1009 10.52 63.1459 10.5 63.1959 10.5H67.3209C67.9309 10.5 68.4709 10.63 68.9409 10.89C69.4109 11.14 69.7759 11.5 70.0359 11.97C70.2959 12.43 70.4259 12.96 70.4259 13.56C70.4259 14.25 70.2459 14.84 69.8859 15.33C69.5359 15.81 69.0459 16.145 68.4159 16.335C68.3959 16.335 68.3809 16.345 68.3709 16.365C68.3609 16.385 68.3609 16.405 68.3709 16.425L70.4859 20.79C70.5059 20.83 70.5159 20.86 70.5159 20.88C70.5159 20.96 70.4609 21 70.3509 21H68.9109ZM64.8309 12C64.7809 12 64.7559 12.025 64.7559 12.075V15.06C64.7559 15.11 64.7809 15.135 64.8309 15.135H67.0809C67.5609 15.135 67.9459 14.995 68.2359 14.715C68.5359 14.425 68.6859 14.045 68.6859 13.575C68.6859 13.105 68.5359 12.725 68.2359 12.435C67.9459 12.145 67.5609 12 67.0809 12H64.8309Z" stroke="white" stroke-width="3" mask="url(#path-1-inside-1_49_10)"/>
<path d="M75.7701 21.15C75.0201 21.15 74.3551 21 73.7751 20.7C73.1951 20.39 72.7451 19.955 72.4251 19.395C72.1151 18.835 71.9601 18.19 71.9601 17.46V14.04C71.9601 13.32 72.1201 12.685 72.4401 12.135C72.7601 11.575 73.2051 11.145 73.7751 10.845C74.3551 10.535 75.0201 10.38 75.7701 10.38C76.5301 10.38 77.1951 10.535 77.7651 10.845C78.3451 11.145 78.7951 11.575 79.1151 12.135C79.4351 12.685 79.5951 13.32 79.5951 14.04V17.46C79.5951 18.19 79.4351 18.835 79.1151 19.395C78.7951 19.955 78.3451 20.39 77.7651 20.7C77.1951 21 76.5301 21.15 75.7701 21.15ZM75.7701 19.65C76.4001 19.65 76.9051 19.455 77.2851 19.065C77.6651 18.675 77.8551 18.16 77.8551 17.52V14.025C77.8551 13.375 77.6651 12.855 77.2851 12.465C76.9051 12.075 76.4001 11.88 75.7701 11.88C75.1501 11.88 74.6501 12.075 74.2701 12.465C73.8901 12.855 73.7001 13.375 73.7001 14.025V17.52C73.7001 18.16 73.8901 18.675 74.2701 19.065C74.6501 19.455 75.1501 19.65 75.7701 19.65Z" stroke="white" stroke-width="3" mask="url(#path-1-inside-1_49_10)"/>
<path d="M88.6265 11.82C88.6265 11.87 88.6065 11.915 88.5665 11.955C88.5365 11.985 88.4965 12 88.4465 12H83.3465C83.2965 12 83.2715 12.025 83.2715 12.075V14.88C83.2715 14.93 83.2965 14.955 83.3465 14.955H86.7815C86.8315 14.955 86.8715 14.975 86.9015 15.015C86.9415 15.045 86.9615 15.085 86.9615 15.135V16.275C86.9615 16.325 86.9415 16.37 86.9015 16.41C86.8715 16.44 86.8315 16.455 86.7815 16.455H83.3465C83.2965 16.455 83.2715 16.48 83.2715 16.53V20.82C83.2715 20.87 83.2515 20.915 83.2115 20.955C83.1815 20.985 83.1415 21 83.0915 21H81.7115C81.6615 21 81.6165 20.985 81.5765 20.955C81.5465 20.915 81.5315 20.87 81.5315 20.82V10.68C81.5315 10.63 81.5465 10.59 81.5765 10.56C81.6165 10.52 81.6615 10.5 81.7115 10.5H88.4465C88.4965 10.5 88.5365 10.52 88.5665 10.56C88.6065 10.59 88.6265 10.63 88.6265 10.68V11.82Z" stroke="white" stroke-width="3" mask="url(#path-1-inside-1_49_10)"/>
<path d="M97.0937 11.82C97.0937 11.87 97.0737 11.915 97.0337 11.955C97.0037 11.985 96.9637 12 96.9137 12H91.7987C91.7487 12 91.7237 12.025 91.7237 12.075V14.88C91.7237 14.93 91.7487 14.955 91.7987 14.955H95.2337C95.2837 14.955 95.3237 14.975 95.3537 15.015C95.3937 15.045 95.4137 15.085 95.4137 15.135V16.275C95.4137 16.325 95.3937 16.37 95.3537 16.41C95.3237 16.44 95.2837 16.455 95.2337 16.455H91.7987C91.7487 16.455 91.7237 16.48 91.7237 16.53V19.425C91.7237 19.475 91.7487 19.5 91.7987 19.5H96.9137C96.9637 19.5 97.0037 19.52 97.0337 19.56C97.0737 19.59 97.0937 19.63 97.0937 19.68V20.82C97.0937 20.87 97.0737 20.915 97.0337 20.955C97.0037 20.985 96.9637 21 96.9137 21H90.1637C90.1137 21 90.0687 20.985 90.0287 20.955C89.9987 20.915 89.9837 20.87 89.9837 20.82V10.68C89.9837 10.63 89.9987 10.59 90.0287 10.56C90.0687 10.52 90.1137 10.5 90.1637 10.5H96.9137C96.9637 10.5 97.0037 10.52 97.0337 10.56C97.0737 10.59 97.0937 10.63 97.0937 10.68V11.82Z" stroke="white" stroke-width="3" mask="url(#path-1-inside-1_49_10)"/>
<path d="M99.0406 21C98.9906 21 98.9456 20.985 98.9056 20.955C98.8756 20.915 98.8606 20.87 98.8606 20.82V10.68C98.8606 10.63 98.8756 10.59 98.9056 10.56C98.9456 10.52 98.9906 10.5 99.0406 10.5H100.421C100.471 10.5 100.511 10.52 100.541 10.56C100.581 10.59 100.601 10.63 100.601 10.68V19.425C100.601 19.475 100.626 19.5 100.676 19.5H105.701C105.751 19.5 105.791 19.52 105.821 19.56C105.861 19.59 105.881 19.63 105.881 19.68V20.82C105.881 20.87 105.861 20.915 105.821 20.955C105.791 20.985 105.751 21 105.701 21H99.0406Z" stroke="white" stroke-width="3" mask="url(#path-1-inside-1_49_10)"/>
<path d="M107.61 21C107.56 21 107.515 20.985 107.475 20.955C107.445 20.915 107.43 20.87 107.43 20.82V10.68C107.43 10.63 107.445 10.59 107.475 10.56C107.515 10.52 107.56 10.5 107.61 10.5H108.99C109.04 10.5 109.08 10.52 109.11 10.56C109.15 10.59 109.17 10.63 109.17 10.68V19.425C109.17 19.475 109.195 19.5 109.245 19.5H114.27C114.32 19.5 114.36 19.52 114.39 19.56C114.43 19.59 114.45 19.63 114.45 19.68V20.82C114.45 20.87 114.43 20.915 114.39 20.955C114.36 20.985 114.32 21 114.27 21H107.61Z" stroke="white" stroke-width="3" mask="url(#path-1-inside-1_49_10)"/>
<path d="M122.905 21C122.805 21 122.74 20.95 122.71 20.85L122.215 19.245C122.195 19.205 122.17 19.185 122.14 19.185H118.18C118.15 19.185 118.125 19.205 118.105 19.245L117.61 20.85C117.58 20.95 117.515 21 117.415 21H115.915C115.855 21 115.81 20.985 115.78 20.955C115.75 20.915 115.745 20.86 115.765 20.79L119.02 10.65C119.05 10.55 119.115 10.5 119.215 10.5H121.09C121.19 10.5 121.255 10.55 121.285 10.65L124.555 20.79C124.565 20.81 124.57 20.835 124.57 20.865C124.57 20.955 124.515 21 124.405 21H122.905ZM118.57 17.73C118.56 17.79 118.58 17.82 118.63 17.82H121.675C121.735 17.82 121.755 17.79 121.735 17.73L120.19 12.705C120.18 12.665 120.165 12.645 120.145 12.645C120.125 12.645 120.11 12.665 120.1 12.705L118.57 17.73Z" stroke="white" stroke-width="3" mask="url(#path-1-inside-1_49_10)"/>
<path d="M134.989 15.525C134.929 15.555 134.929 15.585 134.989 15.615C136.009 16.095 136.519 16.92 136.519 18.09C136.519 19.04 136.199 19.765 135.559 20.265C134.929 20.755 134.104 21 133.084 21H129.304C129.254 21 129.209 20.985 129.169 20.955C129.139 20.915 129.124 20.87 129.124 20.82V10.68C129.124 10.63 129.139 10.59 129.169 10.56C129.209 10.52 129.254 10.5 129.304 10.5H132.964C134.054 10.5 134.894 10.735 135.484 11.205C136.074 11.675 136.369 12.385 136.369 13.335C136.369 14.385 135.909 15.115 134.989 15.525ZM130.939 12C130.889 12 130.864 12.025 130.864 12.075V14.85C130.864 14.9 130.889 14.925 130.939 14.925H132.964C133.494 14.925 133.909 14.8 134.209 14.55C134.519 14.29 134.674 13.935 134.674 13.485C134.674 13.025 134.519 12.665 134.209 12.405C133.909 12.135 133.494 12 132.964 12H130.939ZM133.084 19.485C133.604 19.485 134.014 19.345 134.314 19.065C134.624 18.785 134.779 18.405 134.779 17.925C134.779 17.435 134.624 17.055 134.314 16.785C134.004 16.505 133.584 16.365 133.054 16.365H130.939C130.889 16.365 130.864 16.39 130.864 16.44V19.41C130.864 19.46 130.889 19.485 130.939 19.485H133.084Z" stroke="white" stroke-width="3" mask="url(#path-1-inside-1_49_10)"/>
<path d="M138.635 21C138.585 21 138.54 20.985 138.5 20.955C138.47 20.915 138.455 20.87 138.455 20.82V10.68C138.455 10.63 138.47 10.59 138.5 10.56C138.54 10.52 138.585 10.5 138.635 10.5H140.015C140.065 10.5 140.105 10.52 140.135 10.56C140.175 10.59 140.195 10.63 140.195 10.68V20.82C140.195 20.87 140.175 20.915 140.135 20.955C140.105 20.985 140.065 21 140.015 21H138.635Z" stroke="white" stroke-width="3" mask="url(#path-1-inside-1_49_10)"/>
<path d="M145.936 21.15C145.186 21.15 144.521 21 143.941 20.7C143.361 20.39 142.911 19.955 142.591 19.395C142.281 18.835 142.126 18.19 142.126 17.46V14.04C142.126 13.32 142.286 12.685 142.606 12.135C142.926 11.575 143.371 11.145 143.941 10.845C144.521 10.535 145.186 10.38 145.936 10.38C146.696 10.38 147.361 10.535 147.931 10.845C148.511 11.145 148.961 11.575 149.281 12.135C149.601 12.685 149.761 13.32 149.761 14.04V17.46C149.761 18.19 149.601 18.835 149.281 19.395C148.961 19.955 148.511 20.39 147.931 20.7C147.361 21 146.696 21.15 145.936 21.15ZM145.936 19.65C146.566 19.65 147.071 19.455 147.451 19.065C147.831 18.675 148.021 18.16 148.021 17.52V14.025C148.021 13.375 147.831 12.855 147.451 12.465C147.071 12.075 146.566 11.88 145.936 11.88C145.316 11.88 144.816 12.075 144.436 12.465C144.056 12.855 143.866 13.375 143.866 14.025V17.52C143.866 18.16 144.056 18.675 144.436 19.065C144.816 19.455 145.316 19.65 145.936 19.65Z" stroke="white" stroke-width="3" mask="url(#path-1-inside-1_49_10)"/>
<path d="M28 14C28 21.732 21.732 28 14 28C6.26801 28 0 21.732 0 14C0 6.26801 6.26801 0 14 0C21.732 0 28 6.26801 28 14Z" stroke="white" stroke-width="3" mask="url(#path-1-inside-1_49_10)"/>
<path d="M37 14C37 18.9706 32.9706 23 28 23C23.0294 23 19 18.9706 19 14C19 9.02944 23.0294 5 28 5C32.9706 5 37 9.02944 37 14Z" stroke="white" stroke-width="3" mask="url(#path-1-inside-1_49_10)"/>
</svg>
