<svg width="294" height="55" viewBox="0 0 294 55" fill="none" xmlns="http://www.w3.org/2000/svg">
<mask id="path-1-inside-1_100_73" fill="white">
<path d="M114.47 20.5955C115.707 20.5955 116.796 20.8509 117.738 21.3616C118.681 21.8723 119.407 22.5991 119.918 23.542C120.448 24.4652 120.713 25.5357 120.713 26.7536C120.713 27.9518 120.448 29.0125 119.918 29.9357C119.388 30.8589 118.632 31.5759 117.65 32.0866C116.688 32.5777 115.569 32.8232 114.293 32.8232H109.582C109.484 32.8232 109.434 32.8723 109.434 32.9705V40.8964C109.434 40.9946 109.395 41.083 109.317 41.1616C109.258 41.2205 109.179 41.25 109.081 41.25H106.372C106.274 41.25 106.185 41.2205 106.107 41.1616C106.048 41.083 106.019 40.9946 106.019 40.8964V20.9491C106.019 20.8509 106.048 20.7723 106.107 20.7134C106.185 20.6348 106.274 20.5955 106.372 20.5955H114.47ZM113.969 30.0536C114.97 30.0536 115.775 29.7589 116.384 29.1696C116.992 28.5804 117.297 27.8045 117.297 26.842C117.297 25.8598 116.992 25.0643 116.384 24.4554C115.775 23.8464 114.97 23.542 113.969 23.542H109.582C109.484 23.542 109.434 23.5911 109.434 23.6893V29.9062C109.434 30.0045 109.484 30.0536 109.582 30.0536H113.969Z"/>
<path d="M135.281 41.25C135.084 41.25 134.947 41.1616 134.869 40.9848L130.982 32.4991C130.942 32.4205 130.883 32.3812 130.805 32.3812H127.271C127.173 32.3812 127.124 32.4304 127.124 32.5286V40.8964C127.124 40.9946 127.085 41.083 127.006 41.1616C126.947 41.2205 126.869 41.25 126.771 41.25H124.062C123.963 41.25 123.875 41.2205 123.796 41.1616C123.738 41.083 123.708 40.9946 123.708 40.8964V20.9786C123.708 20.8804 123.738 20.8018 123.796 20.7429C123.875 20.6643 123.963 20.625 124.062 20.625H132.159C133.357 20.625 134.417 20.8804 135.34 21.3911C136.262 21.8821 136.979 22.5893 137.489 23.5125C138 24.4161 138.255 25.4571 138.255 26.6357C138.255 27.9911 137.902 29.15 137.195 30.1125C136.508 31.0554 135.546 31.7134 134.309 32.0866C134.27 32.0866 134.24 32.1062 134.221 32.1455C134.201 32.1848 134.201 32.2241 134.221 32.2634L138.373 40.8375C138.412 40.9161 138.432 40.975 138.432 41.0143C138.432 41.1714 138.324 41.25 138.108 41.25H135.281ZM127.271 23.5714C127.173 23.5714 127.124 23.6205 127.124 23.7187V29.5821C127.124 29.6804 127.173 29.7295 127.271 29.7295H131.688C132.631 29.7295 133.386 29.4545 133.956 28.9045C134.545 28.3348 134.839 27.5884 134.839 26.6652C134.839 25.742 134.545 24.9955 133.956 24.4259C133.386 23.8562 132.631 23.5714 131.688 23.5714H127.271Z"/>
<path d="M148.746 41.5446C147.274 41.5446 145.968 41.25 144.83 40.6607C143.691 40.0518 142.808 39.1973 142.18 38.0973C141.571 36.9973 141.267 35.7304 141.267 34.2964V27.5786C141.267 26.1643 141.581 24.917 142.209 23.8366C142.837 22.7366 143.711 21.892 144.83 21.3027C145.968 20.6937 147.274 20.3893 148.746 20.3893C150.238 20.3893 151.544 20.6937 152.663 21.3027C153.801 21.892 154.685 22.7366 155.313 23.8366C155.941 24.917 156.255 26.1643 156.255 27.5786V34.2964C156.255 35.7304 155.941 36.9973 155.313 38.0973C154.685 39.1973 153.801 40.0518 152.663 40.6607C151.544 41.25 150.238 41.5446 148.746 41.5446ZM148.746 38.5982C149.983 38.5982 150.974 38.2152 151.72 37.4491C152.466 36.683 152.839 35.6714 152.839 34.4143V27.5491C152.839 26.2723 152.466 25.2509 151.72 24.4848C150.974 23.7187 149.983 23.3357 148.746 23.3357C147.529 23.3357 146.548 23.7187 145.802 24.4848C145.056 25.2509 144.683 26.2723 144.683 27.5491V34.4143C144.683 35.6714 145.056 36.683 145.802 37.4491C146.548 38.2152 147.529 38.5982 148.746 38.5982Z"/>
<path d="M173.985 23.2179C173.985 23.3161 173.946 23.4045 173.867 23.483C173.808 23.542 173.73 23.5714 173.632 23.5714H163.62C163.522 23.5714 163.472 23.6205 163.472 23.7187V29.2286C163.472 29.3268 163.522 29.3759 163.62 29.3759H170.363C170.461 29.3759 170.54 29.4152 170.599 29.4937C170.677 29.5527 170.716 29.6312 170.716 29.7295V31.9687C170.716 32.067 170.677 32.1554 170.599 32.2339C170.54 32.2929 170.461 32.3223 170.363 32.3223H163.62C163.522 32.3223 163.472 32.3714 163.472 32.4696V40.8964C163.472 40.9946 163.433 41.083 163.355 41.1616C163.296 41.2205 163.217 41.25 163.119 41.25H160.41C160.312 41.25 160.224 41.2205 160.145 41.1616C160.086 41.083 160.057 40.9946 160.057 40.8964V20.9786C160.057 20.8804 160.086 20.8018 160.145 20.7429C160.224 20.6643 160.312 20.625 160.41 20.625H173.632C173.73 20.625 173.808 20.6643 173.867 20.7429C173.946 20.8018 173.985 20.8804 173.985 20.9786V23.2179Z"/>
<path d="M190.607 23.2179C190.607 23.3161 190.568 23.4045 190.489 23.483C190.43 23.542 190.352 23.5714 190.254 23.5714H180.212C180.114 23.5714 180.065 23.6205 180.065 23.7187V29.2286C180.065 29.3268 180.114 29.3759 180.212 29.3759H186.956C187.054 29.3759 187.132 29.4152 187.191 29.4937C187.27 29.5527 187.309 29.6312 187.309 29.7295V31.9687C187.309 32.067 187.27 32.1554 187.191 32.2339C187.132 32.2929 187.054 32.3223 186.956 32.3223H180.212C180.114 32.3223 180.065 32.3714 180.065 32.4696V38.1562C180.065 38.2545 180.114 38.3036 180.212 38.3036H190.254C190.352 38.3036 190.43 38.3429 190.489 38.4214C190.568 38.4804 190.607 38.5589 190.607 38.6571V40.8964C190.607 40.9946 190.568 41.083 190.489 41.1616C190.43 41.2205 190.352 41.25 190.254 41.25H177.003C176.905 41.25 176.816 41.2205 176.738 41.1616C176.679 41.083 176.649 40.9946 176.649 40.8964V20.9786C176.649 20.8804 176.679 20.8018 176.738 20.7429C176.816 20.6643 176.905 20.625 177.003 20.625H190.254C190.352 20.625 190.43 20.6643 190.489 20.7429C190.568 20.8018 190.607 20.8804 190.607 20.9786V23.2179Z"/>
<path d="M194.429 41.25C194.331 41.25 194.243 41.2205 194.164 41.1616C194.105 41.083 194.076 40.9946 194.076 40.8964V20.9786C194.076 20.8804 194.105 20.8018 194.164 20.7429C194.243 20.6643 194.331 20.625 194.429 20.625H197.138C197.237 20.625 197.315 20.6643 197.374 20.7429C197.452 20.8018 197.492 20.8804 197.492 20.9786V38.1562C197.492 38.2545 197.541 38.3036 197.639 38.3036H207.504C207.602 38.3036 207.68 38.3429 207.739 38.4214C207.818 38.4804 207.857 38.5589 207.857 38.6571V40.8964C207.857 40.9946 207.818 41.083 207.739 41.1616C207.68 41.2205 207.602 41.25 207.504 41.25H194.429Z"/>
<path d="M211.252 41.25C211.154 41.25 211.065 41.2205 210.987 41.1616C210.928 41.083 210.899 40.9946 210.899 40.8964V20.9786C210.899 20.8804 210.928 20.8018 210.987 20.7429C211.065 20.6643 211.154 20.625 211.252 20.625H213.961C214.059 20.625 214.138 20.6643 214.197 20.7429C214.275 20.8018 214.314 20.8804 214.314 20.9786V38.1562C214.314 38.2545 214.363 38.3036 214.462 38.3036H224.326C224.424 38.3036 224.503 38.3429 224.562 38.4214C224.64 38.4804 224.68 38.5589 224.68 38.6571V40.8964C224.68 40.9946 224.64 41.083 224.562 41.1616C224.503 41.2205 224.424 41.25 224.326 41.25H211.252Z"/>
<path d="M241.278 41.25C241.081 41.25 240.954 41.1518 240.895 40.9554L239.923 37.8027C239.884 37.7241 239.835 37.6848 239.776 37.6848H232.002C231.943 37.6848 231.894 37.7241 231.855 37.8027L230.883 40.9554C230.824 41.1518 230.696 41.25 230.5 41.25H227.555C227.438 41.25 227.349 41.2205 227.29 41.1616C227.231 41.083 227.222 40.975 227.261 40.8375L233.651 20.9196C233.71 20.7232 233.837 20.625 234.034 20.625H237.715C237.911 20.625 238.038 20.7232 238.097 20.9196L244.517 40.8375C244.536 40.8768 244.546 40.9259 244.546 40.9848C244.546 41.1616 244.438 41.25 244.222 41.25H241.278ZM232.767 34.8268C232.748 34.9446 232.787 35.0036 232.885 35.0036H238.863C238.981 35.0036 239.02 34.9446 238.981 34.8268L235.948 24.9563C235.928 24.8777 235.899 24.8384 235.859 24.8384C235.82 24.8384 235.791 24.8777 235.771 24.9563L232.767 34.8268Z"/>
<path d="M265.001 30.4955C264.883 30.5545 264.883 30.6134 265.001 30.6723C267.003 31.6152 268.005 33.2357 268.005 35.5339C268.005 37.4 267.376 38.8241 266.12 39.8062C264.883 40.7687 263.264 41.25 261.261 41.25H253.841C253.742 41.25 253.654 41.2205 253.576 41.1616C253.517 41.083 253.487 40.9946 253.487 40.8964V20.9786C253.487 20.8804 253.517 20.8018 253.576 20.7429C253.654 20.6643 253.742 20.625 253.841 20.625H261.026C263.165 20.625 264.815 21.0866 265.973 22.0098C267.131 22.933 267.71 24.3277 267.71 26.1937C267.71 28.2562 266.807 29.6902 265.001 30.4955ZM257.05 23.5714C256.952 23.5714 256.903 23.6205 256.903 23.7187V29.1696C256.903 29.2679 256.952 29.317 257.05 29.317H261.026C262.066 29.317 262.881 29.0714 263.47 28.5804C264.078 28.0696 264.383 27.3723 264.383 26.4884C264.383 25.5848 264.078 24.8777 263.47 24.367C262.881 23.8366 262.066 23.5714 261.026 23.5714H257.05ZM261.261 38.2741C262.282 38.2741 263.087 37.9991 263.676 37.4491C264.284 36.8991 264.589 36.1527 264.589 35.2098C264.589 34.2473 264.284 33.5009 263.676 32.9705C263.067 32.4205 262.243 32.1455 261.202 32.1455H257.05C256.952 32.1455 256.903 32.1946 256.903 32.2929V38.1268C256.903 38.225 256.952 38.2741 257.05 38.2741H261.261Z"/>
<path d="M272.159 41.25C272.061 41.25 271.972 41.2205 271.894 41.1616C271.835 41.083 271.805 40.9946 271.805 40.8964V20.9786C271.805 20.8804 271.835 20.8018 271.894 20.7429C271.972 20.6643 272.061 20.625 272.159 20.625H274.868C274.966 20.625 275.044 20.6643 275.103 20.7429C275.182 20.8018 275.221 20.8804 275.221 20.9786V40.8964C275.221 40.9946 275.182 41.083 275.103 41.1616C275.044 41.2205 274.966 41.25 274.868 41.25H272.159Z"/>
<path d="M286.491 41.5446C285.019 41.5446 283.713 41.25 282.575 40.6607C281.436 40.0518 280.553 39.1973 279.924 38.0973C279.316 36.9973 279.012 35.7304 279.012 34.2964V27.5786C279.012 26.1643 279.326 24.917 279.954 23.8366C280.582 22.7366 281.456 21.892 282.575 21.3027C283.713 20.6937 285.019 20.3893 286.491 20.3893C287.983 20.3893 289.288 20.6937 290.407 21.3027C291.546 21.892 292.429 22.7366 293.058 23.8366C293.686 24.917 294 26.1643 294 27.5786V34.2964C294 35.7304 293.686 36.9973 293.058 38.0973C292.429 39.1973 291.546 40.0518 290.407 40.6607C289.288 41.25 287.983 41.5446 286.491 41.5446ZM286.491 38.5982C287.728 38.5982 288.719 38.2152 289.465 37.4491C290.211 36.683 290.584 35.6714 290.584 34.4143V27.5491C290.584 26.2723 290.211 25.2509 289.465 24.4848C288.719 23.7187 287.728 23.3357 286.491 23.3357C285.274 23.3357 284.292 23.7187 283.546 24.4848C282.8 25.2509 282.427 26.2723 282.427 27.5491V34.4143C282.427 35.6714 282.8 36.683 283.546 37.4491C284.292 38.2152 285.274 38.5982 286.491 38.5982Z"/>
<path d="M54.9675 27.5C54.9675 42.6878 42.6626 55 27.4838 55C12.3049 55 0 42.6878 0 27.5C0 12.3122 12.3049 0 27.4838 0C42.6626 0 54.9675 12.3122 54.9675 27.5Z"/>
<path d="M72.6357 27.5C72.6357 37.2636 64.7254 45.1786 54.9675 45.1786C45.2097 45.1786 37.2994 37.2636 37.2994 27.5C37.2994 17.7364 45.2097 9.82143 54.9675 9.82143C64.7254 9.82143 72.6357 17.7364 72.6357 27.5Z"/>
</mask>
<path d="M114.47 20.5955C115.707 20.5955 116.796 20.8509 117.738 21.3616C118.681 21.8723 119.407 22.5991 119.918 23.542C120.448 24.4652 120.713 25.5357 120.713 26.7536C120.713 27.9518 120.448 29.0125 119.918 29.9357C119.388 30.8589 118.632 31.5759 117.65 32.0866C116.688 32.5777 115.569 32.8232 114.293 32.8232H109.582C109.484 32.8232 109.434 32.8723 109.434 32.9705V40.8964C109.434 40.9946 109.395 41.083 109.317 41.1616C109.258 41.2205 109.179 41.25 109.081 41.25H106.372C106.274 41.25 106.185 41.2205 106.107 41.1616C106.048 41.083 106.019 40.9946 106.019 40.8964V20.9491C106.019 20.8509 106.048 20.7723 106.107 20.7134C106.185 20.6348 106.274 20.5955 106.372 20.5955H114.47ZM113.969 30.0536C114.97 30.0536 115.775 29.7589 116.384 29.1696C116.992 28.5804 117.297 27.8045 117.297 26.842C117.297 25.8598 116.992 25.0643 116.384 24.4554C115.775 23.8464 114.97 23.542 113.969 23.542H109.582C109.484 23.542 109.434 23.5911 109.434 23.6893V29.9062C109.434 30.0045 109.484 30.0536 109.582 30.0536H113.969Z" fill="black"/>
<path d="M135.281 41.25C135.084 41.25 134.947 41.1616 134.869 40.9848L130.982 32.4991C130.942 32.4205 130.883 32.3812 130.805 32.3812H127.271C127.173 32.3812 127.124 32.4304 127.124 32.5286V40.8964C127.124 40.9946 127.085 41.083 127.006 41.1616C126.947 41.2205 126.869 41.25 126.771 41.25H124.062C123.963 41.25 123.875 41.2205 123.796 41.1616C123.738 41.083 123.708 40.9946 123.708 40.8964V20.9786C123.708 20.8804 123.738 20.8018 123.796 20.7429C123.875 20.6643 123.963 20.625 124.062 20.625H132.159C133.357 20.625 134.417 20.8804 135.34 21.3911C136.262 21.8821 136.979 22.5893 137.489 23.5125C138 24.4161 138.255 25.4571 138.255 26.6357C138.255 27.9911 137.902 29.15 137.195 30.1125C136.508 31.0554 135.546 31.7134 134.309 32.0866C134.27 32.0866 134.24 32.1062 134.221 32.1455C134.201 32.1848 134.201 32.2241 134.221 32.2634L138.373 40.8375C138.412 40.9161 138.432 40.975 138.432 41.0143C138.432 41.1714 138.324 41.25 138.108 41.25H135.281ZM127.271 23.5714C127.173 23.5714 127.124 23.6205 127.124 23.7187V29.5821C127.124 29.6804 127.173 29.7295 127.271 29.7295H131.688C132.631 29.7295 133.386 29.4545 133.956 28.9045C134.545 28.3348 134.839 27.5884 134.839 26.6652C134.839 25.742 134.545 24.9955 133.956 24.4259C133.386 23.8562 132.631 23.5714 131.688 23.5714H127.271Z" fill="black"/>
<path d="M148.746 41.5446C147.274 41.5446 145.968 41.25 144.83 40.6607C143.691 40.0518 142.808 39.1973 142.18 38.0973C141.571 36.9973 141.267 35.7304 141.267 34.2964V27.5786C141.267 26.1643 141.581 24.917 142.209 23.8366C142.837 22.7366 143.711 21.892 144.83 21.3027C145.968 20.6937 147.274 20.3893 148.746 20.3893C150.238 20.3893 151.544 20.6937 152.663 21.3027C153.801 21.892 154.685 22.7366 155.313 23.8366C155.941 24.917 156.255 26.1643 156.255 27.5786V34.2964C156.255 35.7304 155.941 36.9973 155.313 38.0973C154.685 39.1973 153.801 40.0518 152.663 40.6607C151.544 41.25 150.238 41.5446 148.746 41.5446ZM148.746 38.5982C149.983 38.5982 150.974 38.2152 151.72 37.4491C152.466 36.683 152.839 35.6714 152.839 34.4143V27.5491C152.839 26.2723 152.466 25.2509 151.72 24.4848C150.974 23.7187 149.983 23.3357 148.746 23.3357C147.529 23.3357 146.548 23.7187 145.802 24.4848C145.056 25.2509 144.683 26.2723 144.683 27.5491V34.4143C144.683 35.6714 145.056 36.683 145.802 37.4491C146.548 38.2152 147.529 38.5982 148.746 38.5982Z" fill="black"/>
<path d="M173.985 23.2179C173.985 23.3161 173.946 23.4045 173.867 23.483C173.808 23.542 173.73 23.5714 173.632 23.5714H163.62C163.522 23.5714 163.472 23.6205 163.472 23.7187V29.2286C163.472 29.3268 163.522 29.3759 163.62 29.3759H170.363C170.461 29.3759 170.54 29.4152 170.599 29.4937C170.677 29.5527 170.716 29.6312 170.716 29.7295V31.9687C170.716 32.067 170.677 32.1554 170.599 32.2339C170.54 32.2929 170.461 32.3223 170.363 32.3223H163.62C163.522 32.3223 163.472 32.3714 163.472 32.4696V40.8964C163.472 40.9946 163.433 41.083 163.355 41.1616C163.296 41.2205 163.217 41.25 163.119 41.25H160.41C160.312 41.25 160.224 41.2205 160.145 41.1616C160.086 41.083 160.057 40.9946 160.057 40.8964V20.9786C160.057 20.8804 160.086 20.8018 160.145 20.7429C160.224 20.6643 160.312 20.625 160.41 20.625H173.632C173.73 20.625 173.808 20.6643 173.867 20.7429C173.946 20.8018 173.985 20.8804 173.985 20.9786V23.2179Z" fill="black"/>
<path d="M190.607 23.2179C190.607 23.3161 190.568 23.4045 190.489 23.483C190.43 23.542 190.352 23.5714 190.254 23.5714H180.212C180.114 23.5714 180.065 23.6205 180.065 23.7187V29.2286C180.065 29.3268 180.114 29.3759 180.212 29.3759H186.956C187.054 29.3759 187.132 29.4152 187.191 29.4937C187.27 29.5527 187.309 29.6312 187.309 29.7295V31.9687C187.309 32.067 187.27 32.1554 187.191 32.2339C187.132 32.2929 187.054 32.3223 186.956 32.3223H180.212C180.114 32.3223 180.065 32.3714 180.065 32.4696V38.1562C180.065 38.2545 180.114 38.3036 180.212 38.3036H190.254C190.352 38.3036 190.43 38.3429 190.489 38.4214C190.568 38.4804 190.607 38.5589 190.607 38.6571V40.8964C190.607 40.9946 190.568 41.083 190.489 41.1616C190.43 41.2205 190.352 41.25 190.254 41.25H177.003C176.905 41.25 176.816 41.2205 176.738 41.1616C176.679 41.083 176.649 40.9946 176.649 40.8964V20.9786C176.649 20.8804 176.679 20.8018 176.738 20.7429C176.816 20.6643 176.905 20.625 177.003 20.625H190.254C190.352 20.625 190.43 20.6643 190.489 20.7429C190.568 20.8018 190.607 20.8804 190.607 20.9786V23.2179Z" fill="black"/>
<path d="M194.429 41.25C194.331 41.25 194.243 41.2205 194.164 41.1616C194.105 41.083 194.076 40.9946 194.076 40.8964V20.9786C194.076 20.8804 194.105 20.8018 194.164 20.7429C194.243 20.6643 194.331 20.625 194.429 20.625H197.138C197.237 20.625 197.315 20.6643 197.374 20.7429C197.452 20.8018 197.492 20.8804 197.492 20.9786V38.1562C197.492 38.2545 197.541 38.3036 197.639 38.3036H207.504C207.602 38.3036 207.68 38.3429 207.739 38.4214C207.818 38.4804 207.857 38.5589 207.857 38.6571V40.8964C207.857 40.9946 207.818 41.083 207.739 41.1616C207.68 41.2205 207.602 41.25 207.504 41.25H194.429Z" fill="black"/>
<path d="M211.252 41.25C211.154 41.25 211.065 41.2205 210.987 41.1616C210.928 41.083 210.899 40.9946 210.899 40.8964V20.9786C210.899 20.8804 210.928 20.8018 210.987 20.7429C211.065 20.6643 211.154 20.625 211.252 20.625H213.961C214.059 20.625 214.138 20.6643 214.197 20.7429C214.275 20.8018 214.314 20.8804 214.314 20.9786V38.1562C214.314 38.2545 214.363 38.3036 214.462 38.3036H224.326C224.424 38.3036 224.503 38.3429 224.562 38.4214C224.64 38.4804 224.68 38.5589 224.68 38.6571V40.8964C224.68 40.9946 224.64 41.083 224.562 41.1616C224.503 41.2205 224.424 41.25 224.326 41.25H211.252Z" fill="black"/>
<path d="M241.278 41.25C241.081 41.25 240.954 41.1518 240.895 40.9554L239.923 37.8027C239.884 37.7241 239.835 37.6848 239.776 37.6848H232.002C231.943 37.6848 231.894 37.7241 231.855 37.8027L230.883 40.9554C230.824 41.1518 230.696 41.25 230.5 41.25H227.555C227.438 41.25 227.349 41.2205 227.29 41.1616C227.231 41.083 227.222 40.975 227.261 40.8375L233.651 20.9196C233.71 20.7232 233.837 20.625 234.034 20.625H237.715C237.911 20.625 238.038 20.7232 238.097 20.9196L244.517 40.8375C244.536 40.8768 244.546 40.9259 244.546 40.9848C244.546 41.1616 244.438 41.25 244.222 41.25H241.278ZM232.767 34.8268C232.748 34.9446 232.787 35.0036 232.885 35.0036H238.863C238.981 35.0036 239.02 34.9446 238.981 34.8268L235.948 24.9563C235.928 24.8777 235.899 24.8384 235.859 24.8384C235.82 24.8384 235.791 24.8777 235.771 24.9563L232.767 34.8268Z" fill="black"/>
<path d="M265.001 30.4955C264.883 30.5545 264.883 30.6134 265.001 30.6723C267.003 31.6152 268.005 33.2357 268.005 35.5339C268.005 37.4 267.376 38.8241 266.12 39.8062C264.883 40.7687 263.264 41.25 261.261 41.25H253.841C253.742 41.25 253.654 41.2205 253.576 41.1616C253.517 41.083 253.487 40.9946 253.487 40.8964V20.9786C253.487 20.8804 253.517 20.8018 253.576 20.7429C253.654 20.6643 253.742 20.625 253.841 20.625H261.026C263.165 20.625 264.815 21.0866 265.973 22.0098C267.131 22.933 267.71 24.3277 267.71 26.1937C267.71 28.2562 266.807 29.6902 265.001 30.4955ZM257.05 23.5714C256.952 23.5714 256.903 23.6205 256.903 23.7187V29.1696C256.903 29.2679 256.952 29.317 257.05 29.317H261.026C262.066 29.317 262.881 29.0714 263.47 28.5804C264.078 28.0696 264.383 27.3723 264.383 26.4884C264.383 25.5848 264.078 24.8777 263.47 24.367C262.881 23.8366 262.066 23.5714 261.026 23.5714H257.05ZM261.261 38.2741C262.282 38.2741 263.087 37.9991 263.676 37.4491C264.284 36.8991 264.589 36.1527 264.589 35.2098C264.589 34.2473 264.284 33.5009 263.676 32.9705C263.067 32.4205 262.243 32.1455 261.202 32.1455H257.05C256.952 32.1455 256.903 32.1946 256.903 32.2929V38.1268C256.903 38.225 256.952 38.2741 257.05 38.2741H261.261Z" fill="black"/>
<path d="M272.159 41.25C272.061 41.25 271.972 41.2205 271.894 41.1616C271.835 41.083 271.805 40.9946 271.805 40.8964V20.9786C271.805 20.8804 271.835 20.8018 271.894 20.7429C271.972 20.6643 272.061 20.625 272.159 20.625H274.868C274.966 20.625 275.044 20.6643 275.103 20.7429C275.182 20.8018 275.221 20.8804 275.221 20.9786V40.8964C275.221 40.9946 275.182 41.083 275.103 41.1616C275.044 41.2205 274.966 41.25 274.868 41.25H272.159Z" fill="black"/>
<path d="M286.491 41.5446C285.019 41.5446 283.713 41.25 282.575 40.6607C281.436 40.0518 280.553 39.1973 279.924 38.0973C279.316 36.9973 279.012 35.7304 279.012 34.2964V27.5786C279.012 26.1643 279.326 24.917 279.954 23.8366C280.582 22.7366 281.456 21.892 282.575 21.3027C283.713 20.6937 285.019 20.3893 286.491 20.3893C287.983 20.3893 289.288 20.6937 290.407 21.3027C291.546 21.892 292.429 22.7366 293.058 23.8366C293.686 24.917 294 26.1643 294 27.5786V34.2964C294 35.7304 293.686 36.9973 293.058 38.0973C292.429 39.1973 291.546 40.0518 290.407 40.6607C289.288 41.25 287.983 41.5446 286.491 41.5446ZM286.491 38.5982C287.728 38.5982 288.719 38.2152 289.465 37.4491C290.211 36.683 290.584 35.6714 290.584 34.4143V27.5491C290.584 26.2723 290.211 25.2509 289.465 24.4848C288.719 23.7187 287.728 23.3357 286.491 23.3357C285.274 23.3357 284.292 23.7187 283.546 24.4848C282.8 25.2509 282.427 26.2723 282.427 27.5491V34.4143C282.427 35.6714 282.8 36.683 283.546 37.4491C284.292 38.2152 285.274 38.5982 286.491 38.5982Z" fill="black"/>
<path d="M114.47 20.5955C115.707 20.5955 116.796 20.8509 117.738 21.3616C118.681 21.8723 119.407 22.5991 119.918 23.542C120.448 24.4652 120.713 25.5357 120.713 26.7536C120.713 27.9518 120.448 29.0125 119.918 29.9357C119.388 30.8589 118.632 31.5759 117.65 32.0866C116.688 32.5777 115.569 32.8232 114.293 32.8232H109.582C109.484 32.8232 109.434 32.8723 109.434 32.9705V40.8964C109.434 40.9946 109.395 41.083 109.317 41.1616C109.258 41.2205 109.179 41.25 109.081 41.25H106.372C106.274 41.25 106.185 41.2205 106.107 41.1616C106.048 41.083 106.019 40.9946 106.019 40.8964V20.9491C106.019 20.8509 106.048 20.7723 106.107 20.7134C106.185 20.6348 106.274 20.5955 106.372 20.5955H114.47ZM113.969 30.0536C114.97 30.0536 115.775 29.7589 116.384 29.1696C116.992 28.5804 117.297 27.8045 117.297 26.842C117.297 25.8598 116.992 25.0643 116.384 24.4554C115.775 23.8464 114.97 23.542 113.969 23.542H109.582C109.484 23.542 109.434 23.5911 109.434 23.6893V29.9062C109.434 30.0045 109.484 30.0536 109.582 30.0536H113.969Z" stroke="black" stroke-width="3" mask="url(#path-1-inside-1_100_73)"/>
<path d="M135.281 41.25C135.084 41.25 134.947 41.1616 134.869 40.9848L130.982 32.4991C130.942 32.4205 130.883 32.3812 130.805 32.3812H127.271C127.173 32.3812 127.124 32.4304 127.124 32.5286V40.8964C127.124 40.9946 127.085 41.083 127.006 41.1616C126.947 41.2205 126.869 41.25 126.771 41.25H124.062C123.963 41.25 123.875 41.2205 123.796 41.1616C123.738 41.083 123.708 40.9946 123.708 40.8964V20.9786C123.708 20.8804 123.738 20.8018 123.796 20.7429C123.875 20.6643 123.963 20.625 124.062 20.625H132.159C133.357 20.625 134.417 20.8804 135.34 21.3911C136.262 21.8821 136.979 22.5893 137.489 23.5125C138 24.4161 138.255 25.4571 138.255 26.6357C138.255 27.9911 137.902 29.15 137.195 30.1125C136.508 31.0554 135.546 31.7134 134.309 32.0866C134.27 32.0866 134.24 32.1062 134.221 32.1455C134.201 32.1848 134.201 32.2241 134.221 32.2634L138.373 40.8375C138.412 40.9161 138.432 40.975 138.432 41.0143C138.432 41.1714 138.324 41.25 138.108 41.25H135.281ZM127.271 23.5714C127.173 23.5714 127.124 23.6205 127.124 23.7187V29.5821C127.124 29.6804 127.173 29.7295 127.271 29.7295H131.688C132.631 29.7295 133.386 29.4545 133.956 28.9045C134.545 28.3348 134.839 27.5884 134.839 26.6652C134.839 25.742 134.545 24.9955 133.956 24.4259C133.386 23.8562 132.631 23.5714 131.688 23.5714H127.271Z" stroke="black" stroke-width="3" mask="url(#path-1-inside-1_100_73)"/>
<path d="M148.746 41.5446C147.274 41.5446 145.968 41.25 144.83 40.6607C143.691 40.0518 142.808 39.1973 142.18 38.0973C141.571 36.9973 141.267 35.7304 141.267 34.2964V27.5786C141.267 26.1643 141.581 24.917 142.209 23.8366C142.837 22.7366 143.711 21.892 144.83 21.3027C145.968 20.6937 147.274 20.3893 148.746 20.3893C150.238 20.3893 151.544 20.6937 152.663 21.3027C153.801 21.892 154.685 22.7366 155.313 23.8366C155.941 24.917 156.255 26.1643 156.255 27.5786V34.2964C156.255 35.7304 155.941 36.9973 155.313 38.0973C154.685 39.1973 153.801 40.0518 152.663 40.6607C151.544 41.25 150.238 41.5446 148.746 41.5446ZM148.746 38.5982C149.983 38.5982 150.974 38.2152 151.72 37.4491C152.466 36.683 152.839 35.6714 152.839 34.4143V27.5491C152.839 26.2723 152.466 25.2509 151.72 24.4848C150.974 23.7187 149.983 23.3357 148.746 23.3357C147.529 23.3357 146.548 23.7187 145.802 24.4848C145.056 25.2509 144.683 26.2723 144.683 27.5491V34.4143C144.683 35.6714 145.056 36.683 145.802 37.4491C146.548 38.2152 147.529 38.5982 148.746 38.5982Z" stroke="black" stroke-width="3" mask="url(#path-1-inside-1_100_73)"/>
<path d="M173.985 23.2179C173.985 23.3161 173.946 23.4045 173.867 23.483C173.808 23.542 173.73 23.5714 173.632 23.5714H163.62C163.522 23.5714 163.472 23.6205 163.472 23.7187V29.2286C163.472 29.3268 163.522 29.3759 163.62 29.3759H170.363C170.461 29.3759 170.54 29.4152 170.599 29.4937C170.677 29.5527 170.716 29.6312 170.716 29.7295V31.9687C170.716 32.067 170.677 32.1554 170.599 32.2339C170.54 32.2929 170.461 32.3223 170.363 32.3223H163.62C163.522 32.3223 163.472 32.3714 163.472 32.4696V40.8964C163.472 40.9946 163.433 41.083 163.355 41.1616C163.296 41.2205 163.217 41.25 163.119 41.25H160.41C160.312 41.25 160.224 41.2205 160.145 41.1616C160.086 41.083 160.057 40.9946 160.057 40.8964V20.9786C160.057 20.8804 160.086 20.8018 160.145 20.7429C160.224 20.6643 160.312 20.625 160.41 20.625H173.632C173.73 20.625 173.808 20.6643 173.867 20.7429C173.946 20.8018 173.985 20.8804 173.985 20.9786V23.2179Z" stroke="black" stroke-width="3" mask="url(#path-1-inside-1_100_73)"/>
<path d="M190.607 23.2179C190.607 23.3161 190.568 23.4045 190.489 23.483C190.43 23.542 190.352 23.5714 190.254 23.5714H180.212C180.114 23.5714 180.065 23.6205 180.065 23.7187V29.2286C180.065 29.3268 180.114 29.3759 180.212 29.3759H186.956C187.054 29.3759 187.132 29.4152 187.191 29.4937C187.27 29.5527 187.309 29.6312 187.309 29.7295V31.9687C187.309 32.067 187.27 32.1554 187.191 32.2339C187.132 32.2929 187.054 32.3223 186.956 32.3223H180.212C180.114 32.3223 180.065 32.3714 180.065 32.4696V38.1562C180.065 38.2545 180.114 38.3036 180.212 38.3036H190.254C190.352 38.3036 190.43 38.3429 190.489 38.4214C190.568 38.4804 190.607 38.5589 190.607 38.6571V40.8964C190.607 40.9946 190.568 41.083 190.489 41.1616C190.43 41.2205 190.352 41.25 190.254 41.25H177.003C176.905 41.25 176.816 41.2205 176.738 41.1616C176.679 41.083 176.649 40.9946 176.649 40.8964V20.9786C176.649 20.8804 176.679 20.8018 176.738 20.7429C176.816 20.6643 176.905 20.625 177.003 20.625H190.254C190.352 20.625 190.43 20.6643 190.489 20.7429C190.568 20.8018 190.607 20.8804 190.607 20.9786V23.2179Z" stroke="black" stroke-width="3" mask="url(#path-1-inside-1_100_73)"/>
<path d="M194.429 41.25C194.331 41.25 194.243 41.2205 194.164 41.1616C194.105 41.083 194.076 40.9946 194.076 40.8964V20.9786C194.076 20.8804 194.105 20.8018 194.164 20.7429C194.243 20.6643 194.331 20.625 194.429 20.625H197.138C197.237 20.625 197.315 20.6643 197.374 20.7429C197.452 20.8018 197.492 20.8804 197.492 20.9786V38.1562C197.492 38.2545 197.541 38.3036 197.639 38.3036H207.504C207.602 38.3036 207.68 38.3429 207.739 38.4214C207.818 38.4804 207.857 38.5589 207.857 38.6571V40.8964C207.857 40.9946 207.818 41.083 207.739 41.1616C207.68 41.2205 207.602 41.25 207.504 41.25H194.429Z" stroke="black" stroke-width="3" mask="url(#path-1-inside-1_100_73)"/>
<path d="M211.252 41.25C211.154 41.25 211.065 41.2205 210.987 41.1616C210.928 41.083 210.899 40.9946 210.899 40.8964V20.9786C210.899 20.8804 210.928 20.8018 210.987 20.7429C211.065 20.6643 211.154 20.625 211.252 20.625H213.961C214.059 20.625 214.138 20.6643 214.197 20.7429C214.275 20.8018 214.314 20.8804 214.314 20.9786V38.1562C214.314 38.2545 214.363 38.3036 214.462 38.3036H224.326C224.424 38.3036 224.503 38.3429 224.562 38.4214C224.64 38.4804 224.68 38.5589 224.68 38.6571V40.8964C224.68 40.9946 224.64 41.083 224.562 41.1616C224.503 41.2205 224.424 41.25 224.326 41.25H211.252Z" stroke="black" stroke-width="3" mask="url(#path-1-inside-1_100_73)"/>
<path d="M241.278 41.25C241.081 41.25 240.954 41.1518 240.895 40.9554L239.923 37.8027C239.884 37.7241 239.835 37.6848 239.776 37.6848H232.002C231.943 37.6848 231.894 37.7241 231.855 37.8027L230.883 40.9554C230.824 41.1518 230.696 41.25 230.5 41.25H227.555C227.438 41.25 227.349 41.2205 227.29 41.1616C227.231 41.083 227.222 40.975 227.261 40.8375L233.651 20.9196C233.71 20.7232 233.837 20.625 234.034 20.625H237.715C237.911 20.625 238.038 20.7232 238.097 20.9196L244.517 40.8375C244.536 40.8768 244.546 40.9259 244.546 40.9848C244.546 41.1616 244.438 41.25 244.222 41.25H241.278ZM232.767 34.8268C232.748 34.9446 232.787 35.0036 232.885 35.0036H238.863C238.981 35.0036 239.02 34.9446 238.981 34.8268L235.948 24.9563C235.928 24.8777 235.899 24.8384 235.859 24.8384C235.82 24.8384 235.791 24.8777 235.771 24.9563L232.767 34.8268Z" stroke="black" stroke-width="3" mask="url(#path-1-inside-1_100_73)"/>
<path d="M265.001 30.4955C264.883 30.5545 264.883 30.6134 265.001 30.6723C267.003 31.6152 268.005 33.2357 268.005 35.5339C268.005 37.4 267.376 38.8241 266.12 39.8062C264.883 40.7687 263.264 41.25 261.261 41.25H253.841C253.742 41.25 253.654 41.2205 253.576 41.1616C253.517 41.083 253.487 40.9946 253.487 40.8964V20.9786C253.487 20.8804 253.517 20.8018 253.576 20.7429C253.654 20.6643 253.742 20.625 253.841 20.625H261.026C263.165 20.625 264.815 21.0866 265.973 22.0098C267.131 22.933 267.71 24.3277 267.71 26.1937C267.71 28.2562 266.807 29.6902 265.001 30.4955ZM257.05 23.5714C256.952 23.5714 256.903 23.6205 256.903 23.7187V29.1696C256.903 29.2679 256.952 29.317 257.05 29.317H261.026C262.066 29.317 262.881 29.0714 263.47 28.5804C264.078 28.0696 264.383 27.3723 264.383 26.4884C264.383 25.5848 264.078 24.8777 263.47 24.367C262.881 23.8366 262.066 23.5714 261.026 23.5714H257.05ZM261.261 38.2741C262.282 38.2741 263.087 37.9991 263.676 37.4491C264.284 36.8991 264.589 36.1527 264.589 35.2098C264.589 34.2473 264.284 33.5009 263.676 32.9705C263.067 32.4205 262.243 32.1455 261.202 32.1455H257.05C256.952 32.1455 256.903 32.1946 256.903 32.2929V38.1268C256.903 38.225 256.952 38.2741 257.05 38.2741H261.261Z" stroke="black" stroke-width="3" mask="url(#path-1-inside-1_100_73)"/>
<path d="M272.159 41.25C272.061 41.25 271.972 41.2205 271.894 41.1616C271.835 41.083 271.805 40.9946 271.805 40.8964V20.9786C271.805 20.8804 271.835 20.8018 271.894 20.7429C271.972 20.6643 272.061 20.625 272.159 20.625H274.868C274.966 20.625 275.044 20.6643 275.103 20.7429C275.182 20.8018 275.221 20.8804 275.221 20.9786V40.8964C275.221 40.9946 275.182 41.083 275.103 41.1616C275.044 41.2205 274.966 41.25 274.868 41.25H272.159Z" stroke="black" stroke-width="3" mask="url(#path-1-inside-1_100_73)"/>
<path d="M286.491 41.5446C285.019 41.5446 283.713 41.25 282.575 40.6607C281.436 40.0518 280.553 39.1973 279.924 38.0973C279.316 36.9973 279.012 35.7304 279.012 34.2964V27.5786C279.012 26.1643 279.326 24.917 279.954 23.8366C280.582 22.7366 281.456 21.892 282.575 21.3027C283.713 20.6937 285.019 20.3893 286.491 20.3893C287.983 20.3893 289.288 20.6937 290.407 21.3027C291.546 21.892 292.429 22.7366 293.058 23.8366C293.686 24.917 294 26.1643 294 27.5786V34.2964C294 35.7304 293.686 36.9973 293.058 38.0973C292.429 39.1973 291.546 40.0518 290.407 40.6607C289.288 41.25 287.983 41.5446 286.491 41.5446ZM286.491 38.5982C287.728 38.5982 288.719 38.2152 289.465 37.4491C290.211 36.683 290.584 35.6714 290.584 34.4143V27.5491C290.584 26.2723 290.211 25.2509 289.465 24.4848C288.719 23.7187 287.728 23.3357 286.491 23.3357C285.274 23.3357 284.292 23.7187 283.546 24.4848C282.8 25.2509 282.427 26.2723 282.427 27.5491V34.4143C282.427 35.6714 282.8 36.683 283.546 37.4491C284.292 38.2152 285.274 38.5982 286.491 38.5982Z" stroke="black" stroke-width="3" mask="url(#path-1-inside-1_100_73)"/>
<path d="M54.9675 27.5C54.9675 42.6878 42.6626 55 27.4838 55C12.3049 55 0 42.6878 0 27.5C0 12.3122 12.3049 0 27.4838 0C42.6626 0 54.9675 12.3122 54.9675 27.5Z" stroke="black" stroke-width="3" mask="url(#path-1-inside-1_100_73)"/>
<path d="M72.6357 27.5C72.6357 37.2636 64.7254 45.1786 54.9675 45.1786C45.2097 45.1786 37.2994 37.2636 37.2994 27.5C37.2994 17.7364 45.2097 9.82143 54.9675 9.82143C64.7254 9.82143 72.6357 17.7364 72.6357 27.5Z" stroke="black" stroke-width="3" mask="url(#path-1-inside-1_100_73)"/>
</svg>
